<?xml version="1.0" encoding="UTF-8"?>
<!DOCTYPE svg PUBLIC "-//W3C//DTD SVG 1.1//EN" "http://www.w3.org/Graphics/SVG/1.1/DTD/svg11.dtd">
<svg xmlns="http://www.w3.org/2000/svg" version="1.1" width="192px" height="192px" style="shape-rendering:geometricPrecision; text-rendering:geometricPrecision; image-rendering:optimizeQuality; fill-rule:evenodd; clip-rule:evenodd" xmlns:xlink="http://www.w3.org/1999/xlink">
<g><path style="opacity:1" fill="#fcf2d5" d="M -0.5,-0.5 C 63.5,-0.5 127.5,-0.5 191.5,-0.5C 191.5,63.5 191.5,127.5 191.5,191.5C 127.5,191.5 63.5,191.5 -0.5,191.5C -0.5,127.5 -0.5,63.5 -0.5,-0.5 Z"/></g>
<g><path style="opacity:1" fill="#fbb50b" d="M 117.5,42.5 C 114.371,46.1309 111.037,49.6309 107.5,53C 104.587,52.7097 101.587,52.5431 98.5,52.5C 97.2067,51.8418 95.7067,51.5085 94,51.5C 90.4279,51.8592 86.9279,52.5259 83.5,53.5C 80.1667,49.8333 76.8333,46.1667 73.5,42.5C 88.1227,36.0075 102.789,36.0075 117.5,42.5 Z"/></g>
<g><path style="opacity:1" fill="#1d2128" d="M 73.5,42.5 C 76.8333,46.1667 80.1667,49.8333 83.5,53.5C 82.7095,54.4013 81.7095,55.0679 80.5,55.5C 77.7689,51.7657 74.4356,48.7657 70.5,46.5C 70.5,45.8333 70.5,45.1667 70.5,44.5C 69.9557,40.3601 70.9557,39.6935 73.5,42.5 Z"/></g>
<g><path style="opacity:1" fill="#fab105" d="M 121.5,44.5 C 123.23,45.0256 124.564,46.0256 125.5,47.5C 125.5,53.5 125.5,59.5 125.5,65.5C 125.5,68.1667 125.5,70.8333 125.5,73.5C 122.482,72.145 121.149,69.8116 121.5,66.5C 121.5,59.1667 121.5,51.8333 121.5,44.5 Z"/></g>
<g><path style="opacity:1" fill="#fdb607" d="M 70.5,44.5 C 70.5,45.1667 70.5,45.8333 70.5,46.5C 70.5,52.8333 70.5,59.1667 70.5,65.5C 67.6653,73.3152 67.9986,80.9818 71.5,88.5C 60.8333,88.5 50.1667,88.5 39.5,88.5C 42.0818,68.2692 52.4152,53.6026 70.5,44.5 Z"/></g>
<g><path style="opacity:1" fill="#f34c31" d="M 121.5,44.5 C 121.5,51.8333 121.5,59.1667 121.5,66.5C 118.707,62.206 115.373,58.3727 111.5,55C 114.322,51.0109 117.656,47.5109 121.5,44.5 Z"/></g>
<g><path style="opacity:1" fill="#18cbb4" d="M 125.5,47.5 C 139.599,56.3403 148.266,69.007 151.5,85.5C 149.167,85.5 146.833,85.5 144.5,85.5C 138.139,78.807 131.806,72.1403 125.5,65.5C 125.5,59.5 125.5,53.5 125.5,47.5 Z"/></g>
<g><path style="opacity:1" fill="#2883c0" d="M 70.5,46.5 C 74.4356,48.7657 77.7689,51.7657 80.5,55.5C 76.8333,58.5 73.5,61.8333 70.5,65.5C 70.5,59.1667 70.5,52.8333 70.5,46.5 Z"/></g>
<g><path style="opacity:1" fill="#f8f8e7" d="M 98.5,52.5 C 89.4053,57.0261 85.9053,64.3595 88,74.5C 88.2718,77.4324 89.4385,79.9324 91.5,82C 90.552,82.4828 89.552,82.6495 88.5,82.5C 86.1667,82.5 83.8333,82.5 81.5,82.5C 80.325,82.281 79.325,82.6143 78.5,83.5C 79.8569,85.1856 81.1902,86.8523 82.5,88.5C 82.2876,91.7124 80.6209,93.7124 77.5,94.5C 75.5,93.1667 73.8333,91.5 72.5,89.5C 72.5,88.8333 72.1667,88.5 71.5,88.5C 67.9986,80.9818 67.6653,73.3152 70.5,65.5C 73.5,61.8333 76.8333,58.5 80.5,55.5C 81.7095,55.0679 82.7095,54.4013 83.5,53.5C 86.9279,52.5259 90.4279,51.8592 94,51.5C 95.7067,51.5085 97.2067,51.8418 98.5,52.5 Z"/></g>
<g><path style="opacity:1" fill="#1f7ec5" d="M 125.5,65.5 C 131.806,72.1403 138.139,78.807 144.5,85.5C 138.167,85.5 131.833,85.5 125.5,85.5C 125.5,81.5 125.5,77.5 125.5,73.5C 125.5,70.8333 125.5,68.1667 125.5,65.5 Z"/></g>
<g><path style="opacity:1" fill="#181e2a" d="M 76.5,69.5 C 81.3276,69.3852 82.6609,71.5519 80.5,76C 74.7377,76.4178 73.4044,74.2511 76.5,69.5 Z"/></g>
<g><path style="opacity:1" fill="#f6f5e5" d="M 121.5,98.5 C 117.818,98.6653 114.152,98.4986 110.5,98C 112.349,96.907 114.016,95.5737 115.5,94C 112.654,94.9486 109.654,95.9486 106.5,97C 98.5985,98.5454 91.9319,96.3787 86.5,90.5C 87.7372,87.7554 89.5705,85.4221 92,83.5C 98.4165,90.2209 106.25,92.3875 115.5,90C 117.587,89.2078 119.421,88.0412 121,86.5C 121.499,90.4862 121.666,94.4862 121.5,98.5 Z"/></g>
<g><path style="opacity:1" fill="#fd4934" d="M 151.5,89.5 C 152.774,102.472 150.108,114.472 143.5,125.5C 139.29,119.142 133.457,114.809 126,112.5C 125.5,104.841 125.334,97.1739 125.5,89.5C 134.167,89.5 142.833,89.5 151.5,89.5 Z"/></g>
<g><path style="opacity:1" fill="#182231" d="M 71.5,89.5 C 71.8333,89.5 72.1667,89.5 72.5,89.5C 73.8333,91.5 75.5,93.1667 77.5,94.5C 76.0552,96.0627 74.3885,97.396 72.5,98.5C 71.5233,95.7131 71.19,92.7131 71.5,89.5 Z"/></g>
<g><path style="opacity:1" fill="#0c8885" d="M 71.5,89.5 C 71.19,92.7131 71.5233,95.7131 72.5,98.5C 72.5,99.1667 72.1667,99.5 71.5,99.5C 69.7162,99.8925 68.0495,100.559 66.5,101.5C 65.2716,98.9249 63.6049,96.5916 61.5,94.5C 63.494,90.1759 66.8273,88.5092 71.5,89.5 Z"/></g>
<g><path style="opacity:1" fill="#e2d5bb" d="M 82.5,88.5 C 83.6049,89.6005 84.9382,90.2671 86.5,90.5C 91.9319,96.3787 98.5985,98.5454 106.5,97C 109.654,95.9486 112.654,94.9486 115.5,94C 114.016,95.5737 112.349,96.907 110.5,98C 114.152,98.4986 117.818,98.6653 121.5,98.5C 109.25,98.7084 96.9168,98.7084 84.5,98.5C 83.791,97.596 82.791,97.2627 81.5,97.5C 81.5,103.167 81.5,108.833 81.5,114.5C 78.1667,111.833 74.8333,109.167 71.5,106.5C 71.5,104.167 71.5,101.833 71.5,99.5C 72.1667,99.5 72.5,99.1667 72.5,98.5C 74.3885,97.396 76.0552,96.0627 77.5,94.5C 80.6209,93.7124 82.2876,91.7124 82.5,88.5 Z"/></g>
<g><path style="opacity:1" fill="#23cbaf" d="M 39.5,88.5 C 50.1667,88.5 60.8333,88.5 71.5,88.5C 72.1667,88.5 72.5,88.8333 72.5,89.5C 72.1667,89.5 71.8333,89.5 71.5,89.5C 66.8273,88.5092 63.494,90.1759 61.5,94.5C 63.6049,96.5916 65.2716,98.9249 66.5,101.5C 57.9771,107.698 51.6438,115.698 47.5,125.5C 39.9794,114.231 37.3127,101.898 39.5,88.5 Z"/></g>
<g><path style="opacity:1" fill="#121821" d="M 71.5,99.5 C 71.5,101.833 71.5,104.167 71.5,106.5C 71.5,120.167 71.5,133.833 71.5,147.5C 61.292,142.627 53.292,135.294 47.5,125.5C 51.6438,115.698 57.9771,107.698 66.5,101.5C 68.0495,100.559 69.7162,99.8925 71.5,99.5 Z"/></g>
<g><path style="opacity:1" fill="#fdfeee" d="M 121.5,103.5 C 121.5,106.5 121.5,109.5 121.5,112.5C 114.521,113.155 108.854,116.155 104.5,121.5C 98.3612,128.604 96.0278,136.938 97.5,146.5C 97.1459,148.541 97.1459,150.374 97.5,152C 93.9399,153.237 90.2733,153.737 86.5,153.5C 86.3334,137.83 86.5001,122.163 87,106.5C 87.8333,105.667 88.6667,104.833 89.5,104C 100.161,103.5 110.828,103.333 121.5,103.5 Z"/></g>
<g><path style="opacity:1" fill="#fefeed" d="M 71.5,106.5 C 74.8333,109.167 78.1667,111.833 81.5,114.5C 81.5,126.833 81.5,139.167 81.5,151.5C 77.6733,151.248 74.3399,149.915 71.5,147.5C 71.5,133.833 71.5,120.167 71.5,106.5 Z"/></g>
<g><path style="opacity:1" fill="#141a23" d="M 121.5,44.5 C 117.656,47.5109 114.322,51.0109 111.5,55C 115.373,58.3727 118.707,62.206 121.5,66.5C 121.149,69.8116 122.482,72.145 125.5,73.5C 125.5,77.5 125.5,81.5 125.5,85.5C 131.833,85.5 138.167,85.5 144.5,85.5C 146.833,85.5 149.167,85.5 151.5,85.5C 151.5,86.8333 151.5,88.1667 151.5,89.5C 142.833,89.5 134.167,89.5 125.5,89.5C 125.334,97.1739 125.5,104.841 126,112.5C 133.457,114.809 139.29,119.142 143.5,125.5C 138.095,134.572 130.762,141.572 121.5,146.5C 122.611,141.151 121.111,136.818 117,133.5C 111.577,138.264 109.411,144.264 110.5,151.5C 107.211,152.548 103.878,153.048 100.5,153C 99.5783,150.706 98.5783,148.539 97.5,146.5C 96.0278,136.938 98.3612,128.604 104.5,121.5C 107.093,122.754 109.427,124.42 111.5,126.5C 113.146,128.812 115.146,130.812 117.5,132.5C 118.5,131.833 119.5,131.167 120.5,130.5C 121.484,127.572 121.817,124.572 121.5,121.5C 121.5,118.5 121.5,115.5 121.5,112.5C 121.5,109.5 121.5,106.5 121.5,103.5C 109.678,102.505 97.6783,102.172 85.5,102.5C 85.5,119.167 85.5,135.833 85.5,152.5C 84.209,152.737 83.209,152.404 82.5,151.5C 81.847,133.468 82.5137,115.802 84.5,98.5C 96.9168,98.7084 109.25,98.7084 121.5,98.5C 121.666,94.4862 121.499,90.4862 121,86.5C 119.421,88.0412 117.587,89.2078 115.5,90C 106.25,92.3875 98.4165,90.2209 92,83.5C 89.5705,85.4221 87.7372,87.7554 86.5,90.5C 84.9382,90.2671 83.6049,89.6005 82.5,88.5C 81.1902,86.8523 79.8569,85.1856 78.5,83.5C 79.325,82.6143 80.325,82.281 81.5,82.5C 84.118,87.6849 86.4514,87.6849 88.5,82.5C 89.552,82.6495 90.552,82.4828 91.5,82C 89.4385,79.9324 88.2718,77.4324 88,74.5C 85.9053,64.3595 89.4053,57.0261 98.5,52.5C 101.587,52.5431 104.587,52.7097 107.5,53C 111.037,49.6309 114.371,46.1309 117.5,42.5C 120.369,39.488 121.702,40.1547 121.5,44.5 Z"/></g>
<g><path style="opacity:1" fill="#e95140" d="M 81.5,82.5 C 83.8333,82.5 86.1667,82.5 88.5,82.5C 86.4514,87.6849 84.118,87.6849 81.5,82.5 Z"/></g>
<g><path style="opacity:1" fill="#eaab0c" d="M 102.5,65.5 C 102.5,67.1667 102.5,68.8333 102.5,70.5C 100.365,70.147 99.0319,70.9803 98.5,73C 99.0717,75.0736 100.405,76.2402 102.5,76.5C 102.5,78.1667 102.5,79.8333 102.5,81.5C 94.4978,79.7727 92.3311,75.106 96,67.5C 97.897,65.9837 100.064,65.317 102.5,65.5 Z"/></g>
<g><path style="opacity:1" fill="#f0f0e0" d="M 102.5,65.5 C 109.642,67.2919 111.476,71.6252 108,78.5C 106.259,79.7577 104.426,80.7577 102.5,81.5C 102.5,79.8333 102.5,78.1667 102.5,76.5C 104.926,75.6475 105.76,73.9808 105,71.5C 104.329,70.7476 103.496,70.4142 102.5,70.5C 102.5,68.8333 102.5,67.1667 102.5,65.5 Z"/></g>
<g><path style="opacity:1" fill="#181e27" d="M 102.5,70.5 C 103.496,70.4142 104.329,70.7476 105,71.5C 105.76,73.9808 104.926,75.6475 102.5,76.5C 100.405,76.2402 99.0717,75.0736 98.5,73C 99.0319,70.9803 100.365,70.147 102.5,70.5 Z"/></g>
<g><path style="opacity:1" fill="#11cbb5" d="M 121.5,112.5 C 121.5,115.5 121.5,118.5 121.5,121.5C 117.883,122.642 114.55,124.308 111.5,126.5C 109.427,124.42 107.093,122.754 104.5,121.5C 108.854,116.155 114.521,113.155 121.5,112.5 Z"/></g>
<g><path style="opacity:1" fill="#74736f" d="M 84.5,98.5 C 82.5137,115.802 81.847,133.468 82.5,151.5C 82.1667,151.5 81.8333,151.5 81.5,151.5C 81.5,139.167 81.5,126.833 81.5,114.5C 81.5,108.833 81.5,103.167 81.5,97.5C 82.791,97.2627 83.791,97.596 84.5,98.5 Z"/></g>
<g><path style="opacity:1" fill="#1e82c5" d="M 121.5,121.5 C 121.817,124.572 121.484,127.572 120.5,130.5C 119.5,131.167 118.5,131.833 117.5,132.5C 115.146,130.812 113.146,128.812 111.5,126.5C 114.55,124.308 117.883,122.642 121.5,121.5 Z"/></g>
<g><path style="opacity:1" fill="#0ec7b0" d="M 121.5,146.5 C 118.291,148.934 114.624,150.601 110.5,151.5C 109.411,144.264 111.577,138.264 117,133.5C 121.111,136.818 122.611,141.151 121.5,146.5 Z"/></g>
</svg>
